<svg xmlns="http://www.w3.org/2000/svg" version="1.1" xmlns:xlink="http://www.w3.org/1999/xlink" xmlns:svgjs="http://svgjs.dev/svgjs" width="1000" height="1051" viewBox="0 0 1000 1051"><g transform="matrix(1,0,0,1,0.9120463919630879,0.4255060728744411)"><svg viewBox="0 0 235 247" data-background-color="#ffffff" preserveAspectRatio="xMidYMid meet" height="1051" width="1000" xmlns="http://www.w3.org/2000/svg" xmlns:xlink="http://www.w3.org/1999/xlink"><g id="tight-bounds" transform="matrix(1,0,0,1,-0.21433090211132821,-0.09999999999999432)"><svg viewBox="0 0 235.42866180422266 247.2" height="247.2" width="235.42866180422266"><g><svg viewBox="0 0 235.42866180422266 247.2" height="247.2" width="235.42866180422266"><g><svg viewBox="0 0 235.42866180422266 247.2" height="247.2" width="235.42866180422266"><g id="textblocktransform"><svg viewBox="0 0 235.42866180422266 247.2" height="247.2" width="235.42866180422266" id="textblock"><g><svg viewBox="0 0 235.42866180422266 247.2" height="247.2" width="235.42866180422266"><rect width="235.42866180422266" height="247.2" x="0" y="0" opacity="1" fill="#4790fc" data-fill-palette-color="tertiary"></rect><g transform="matrix(1,0,0,1,23.607599999999998,23.607599999999998)"><svg width="188.21346180422265" viewBox="2.8299999237060547 -38.15999984741211 35.91999816894531 38.15999984741211" height="199.9848" data-palette-color="#ffffff"><path d="M16.92 0L16.92-31.37 2.83-31.37 2.83-38.16 38.75-38.16 38.75-31.37 24.66-31.37 24.66 0 16.92 0Z" opacity="1" transform="matrix(1,0,0,1,0,0)" fill="#ffffff" class="wordmark-text-0" data-fill-palette-color="quaternary" id="text-0"></path></svg></g></svg></g></svg></g></svg></g></svg></g><defs></defs></svg><rect width="235.42866180422266" height="247.2" fill="none" stroke="none" visibility="hidden"></rect></g></svg></g></svg>